<mxfile host="app.diagrams.net" modified="2020-08-23T22:31:46.223Z" agent="5.0 (Windows NT 10.0; Win64; x64) AppleWebKit/537.36 (KHTML, like Gecko) Chrome/84.0.4147.135 Safari/537.36" etag="kuL53mk03KNfoAoQmC7c" version="13.6.4" type="github">
  <diagram id="R2lEEEUBdFMjLlhIrx00" name="Page-1">
    <mxGraphModel dx="868" dy="482" grid="1" gridSize="10" guides="1" tooltips="1" connect="1" arrows="1" fold="1" page="1" pageScale="1" pageWidth="850" pageHeight="1100" math="0" shadow="0" extFonts="Permanent Marker^https://fonts.googleapis.com/css?family=Permanent+Marker">
      <root>
        <mxCell id="0" />
        <mxCell id="1" parent="0" />
        <mxCell id="9OBMv8pWerXPRRpOb5PL-1" value="" style="shape=cylinder2;whiteSpace=wrap;html=1;boundedLbl=1;backgroundOutline=1;size=15;" vertex="1" parent="1">
          <mxGeometry x="620" y="150" width="160" height="150" as="geometry" />
        </mxCell>
        <mxCell id="9OBMv8pWerXPRRpOb5PL-2" value="External Database" style="text;html=1;strokeColor=none;fillColor=none;align=center;verticalAlign=middle;whiteSpace=wrap;rounded=0;" vertex="1" parent="1">
          <mxGeometry x="645" y="180" width="110" height="30" as="geometry" />
        </mxCell>
        <mxCell id="9OBMv8pWerXPRRpOb5PL-3" value="" style="shape=cube;whiteSpace=wrap;html=1;boundedLbl=1;backgroundOutline=1;darkOpacity=0.05;darkOpacity2=0.1;" vertex="1" parent="1">
          <mxGeometry x="70" y="70" width="200" height="310" as="geometry" />
        </mxCell>
        <mxCell id="9OBMv8pWerXPRRpOb5PL-4" value="Salesforce" style="text;html=1;strokeColor=none;fillColor=none;align=center;verticalAlign=middle;whiteSpace=wrap;rounded=0;" vertex="1" parent="1">
          <mxGeometry x="140" y="70" width="40" height="20" as="geometry" />
        </mxCell>
        <mxCell id="9OBMv8pWerXPRRpOb5PL-14" value="" style="edgeStyle=orthogonalEdgeStyle;rounded=0;orthogonalLoop=1;jettySize=auto;html=1;" edge="1" parent="1" source="9OBMv8pWerXPRRpOb5PL-5" target="9OBMv8pWerXPRRpOb5PL-7">
          <mxGeometry relative="1" as="geometry" />
        </mxCell>
        <mxCell id="9OBMv8pWerXPRRpOb5PL-5" value="Apex Classes REST API" style="rounded=0;whiteSpace=wrap;html=1;" vertex="1" parent="1">
          <mxGeometry x="117.5" y="110" width="120" height="60" as="geometry" />
        </mxCell>
        <mxCell id="9OBMv8pWerXPRRpOb5PL-6" value="Order" style="rounded=1;whiteSpace=wrap;html=1;" vertex="1" parent="1">
          <mxGeometry x="132.5" y="190" width="90" height="40" as="geometry" />
        </mxCell>
        <mxCell id="9OBMv8pWerXPRRpOb5PL-15" value="" style="edgeStyle=orthogonalEdgeStyle;rounded=0;orthogonalLoop=1;jettySize=auto;html=1;" edge="1" parent="1" source="9OBMv8pWerXPRRpOb5PL-7" target="9OBMv8pWerXPRRpOb5PL-8">
          <mxGeometry relative="1" as="geometry" />
        </mxCell>
        <mxCell id="9OBMv8pWerXPRRpOb5PL-7" value="Product" style="rounded=1;whiteSpace=wrap;html=1;" vertex="1" parent="1">
          <mxGeometry x="132.5" y="250" width="90" height="40" as="geometry" />
        </mxCell>
        <mxCell id="9OBMv8pWerXPRRpOb5PL-8" value="Delivery" style="rounded=1;whiteSpace=wrap;html=1;" vertex="1" parent="1">
          <mxGeometry x="135" y="320" width="85" height="40" as="geometry" />
        </mxCell>
        <mxCell id="9OBMv8pWerXPRRpOb5PL-10" value="" style="endArrow=classic;startArrow=classic;html=1;" edge="1" parent="1">
          <mxGeometry width="50" height="50" relative="1" as="geometry">
            <mxPoint x="280" y="234" as="sourcePoint" />
            <mxPoint x="610" y="234" as="targetPoint" />
          </mxGeometry>
        </mxCell>
        <mxCell id="9OBMv8pWerXPRRpOb5PL-12" value="HTTP REST API GET/POST" style="text;html=1;strokeColor=none;fillColor=none;align=center;verticalAlign=middle;whiteSpace=wrap;rounded=0;" vertex="1" parent="1">
          <mxGeometry x="360" y="190" width="150" height="40" as="geometry" />
        </mxCell>
      </root>
    </mxGraphModel>
  </diagram>
</mxfile>
